<mxfile host="app.diagrams.net" modified="2023-01-23T08:50:56.996Z" agent="5.0 (Windows NT 10.0; Win64; x64) AppleWebKit/537.36 (KHTML, like Gecko) Chrome/109.0.0.0 Safari/537.36" etag="TLYn1_a58vwkziLIJL99" version="20.2.8" type="github">
  <diagram id="L8x1p3_wUoEDGuBpzZGT" name="Page-1">
    <mxGraphModel dx="1108" dy="685" grid="1" gridSize="10" guides="1" tooltips="1" connect="1" arrows="1" fold="1" page="1" pageScale="1" pageWidth="827" pageHeight="1169" math="0" shadow="0">
      <root>
        <mxCell id="0" />
        <mxCell id="1" parent="0" />
        <mxCell id="OMDTb1dRM-pu-fCfnJjT-1" value="" style="endArrow=none;html=1;rounded=0;" edge="1" parent="1">
          <mxGeometry width="50" height="50" relative="1" as="geometry">
            <mxPoint x="160" y="580" as="sourcePoint" />
            <mxPoint x="160" y="40" as="targetPoint" />
          </mxGeometry>
        </mxCell>
        <mxCell id="OMDTb1dRM-pu-fCfnJjT-2" value="" style="endArrow=none;html=1;rounded=0;" edge="1" parent="1">
          <mxGeometry width="50" height="50" relative="1" as="geometry">
            <mxPoint x="320" y="590" as="sourcePoint" />
            <mxPoint x="320" y="40" as="targetPoint" />
          </mxGeometry>
        </mxCell>
        <mxCell id="OMDTb1dRM-pu-fCfnJjT-3" value="" style="endArrow=none;html=1;rounded=0;" edge="1" parent="1">
          <mxGeometry width="50" height="50" relative="1" as="geometry">
            <mxPoint x="480" y="590" as="sourcePoint" />
            <mxPoint x="480" y="40" as="targetPoint" />
          </mxGeometry>
        </mxCell>
        <mxCell id="OMDTb1dRM-pu-fCfnJjT-4" value="" style="endArrow=none;html=1;rounded=0;" edge="1" parent="1">
          <mxGeometry width="50" height="50" relative="1" as="geometry">
            <mxPoint x="640" y="580" as="sourcePoint" />
            <mxPoint x="640" y="40" as="targetPoint" />
          </mxGeometry>
        </mxCell>
        <mxCell id="OMDTb1dRM-pu-fCfnJjT-5" value="lvl 4" style="text;html=1;align=center;verticalAlign=middle;resizable=0;points=[];autosize=1;strokeColor=none;fillColor=none;" vertex="1" parent="1">
          <mxGeometry x="710" y="40" width="40" height="30" as="geometry" />
        </mxCell>
        <mxCell id="OMDTb1dRM-pu-fCfnJjT-6" value="lvl 3" style="text;html=1;align=center;verticalAlign=middle;resizable=0;points=[];autosize=1;strokeColor=none;fillColor=none;" vertex="1" parent="1">
          <mxGeometry x="540" y="40" width="40" height="30" as="geometry" />
        </mxCell>
        <mxCell id="OMDTb1dRM-pu-fCfnJjT-7" value="lvl 2" style="text;html=1;align=center;verticalAlign=middle;resizable=0;points=[];autosize=1;strokeColor=none;fillColor=none;" vertex="1" parent="1">
          <mxGeometry x="380" y="40" width="40" height="30" as="geometry" />
        </mxCell>
        <mxCell id="OMDTb1dRM-pu-fCfnJjT-8" value="lvl 1" style="text;html=1;align=center;verticalAlign=middle;resizable=0;points=[];autosize=1;strokeColor=none;fillColor=none;" vertex="1" parent="1">
          <mxGeometry x="220" y="40" width="40" height="30" as="geometry" />
        </mxCell>
        <mxCell id="OMDTb1dRM-pu-fCfnJjT-48" style="edgeStyle=orthogonalEdgeStyle;curved=1;orthogonalLoop=1;jettySize=auto;html=1;" edge="1" parent="1" source="OMDTb1dRM-pu-fCfnJjT-9" target="OMDTb1dRM-pu-fCfnJjT-11">
          <mxGeometry relative="1" as="geometry" />
        </mxCell>
        <mxCell id="OMDTb1dRM-pu-fCfnJjT-9" value="" style="ellipse;whiteSpace=wrap;html=1;aspect=fixed;" vertex="1" parent="1">
          <mxGeometry x="215" y="91" width="50" height="50" as="geometry" />
        </mxCell>
        <mxCell id="OMDTb1dRM-pu-fCfnJjT-10" value="Simple Evolution" style="text;html=1;align=center;verticalAlign=middle;resizable=0;points=[];autosize=1;strokeColor=none;fillColor=none;" vertex="1" parent="1">
          <mxGeometry x="30" y="101" width="110" height="30" as="geometry" />
        </mxCell>
        <mxCell id="OMDTb1dRM-pu-fCfnJjT-49" style="edgeStyle=orthogonalEdgeStyle;curved=1;orthogonalLoop=1;jettySize=auto;html=1;" edge="1" parent="1" source="OMDTb1dRM-pu-fCfnJjT-11" target="OMDTb1dRM-pu-fCfnJjT-13">
          <mxGeometry relative="1" as="geometry" />
        </mxCell>
        <mxCell id="OMDTb1dRM-pu-fCfnJjT-11" value="" style="ellipse;whiteSpace=wrap;html=1;aspect=fixed;" vertex="1" parent="1">
          <mxGeometry x="375" y="91" width="50" height="50" as="geometry" />
        </mxCell>
        <mxCell id="OMDTb1dRM-pu-fCfnJjT-12" value="" style="ellipse;whiteSpace=wrap;html=1;aspect=fixed;" vertex="1" parent="1">
          <mxGeometry x="705" y="91" width="50" height="50" as="geometry" />
        </mxCell>
        <mxCell id="OMDTb1dRM-pu-fCfnJjT-50" style="edgeStyle=orthogonalEdgeStyle;curved=1;orthogonalLoop=1;jettySize=auto;html=1;entryX=0;entryY=0.5;entryDx=0;entryDy=0;" edge="1" parent="1" source="OMDTb1dRM-pu-fCfnJjT-13" target="OMDTb1dRM-pu-fCfnJjT-12">
          <mxGeometry relative="1" as="geometry" />
        </mxCell>
        <mxCell id="OMDTb1dRM-pu-fCfnJjT-13" value="" style="ellipse;whiteSpace=wrap;html=1;aspect=fixed;" vertex="1" parent="1">
          <mxGeometry x="535" y="91" width="50" height="50" as="geometry" />
        </mxCell>
        <mxCell id="OMDTb1dRM-pu-fCfnJjT-14" value="simple Multi Evolution" style="text;html=1;align=center;verticalAlign=middle;resizable=0;points=[];autosize=1;strokeColor=none;fillColor=none;" vertex="1" parent="1">
          <mxGeometry x="15" y="215" width="140" height="30" as="geometry" />
        </mxCell>
        <mxCell id="OMDTb1dRM-pu-fCfnJjT-16" value="" style="ellipse;whiteSpace=wrap;html=1;aspect=fixed;" vertex="1" parent="1">
          <mxGeometry x="710" y="160" width="40" height="40" as="geometry" />
        </mxCell>
        <mxCell id="OMDTb1dRM-pu-fCfnJjT-45" style="edgeStyle=orthogonalEdgeStyle;curved=1;orthogonalLoop=1;jettySize=auto;html=1;entryX=0;entryY=0.5;entryDx=0;entryDy=0;" edge="1" parent="1" source="OMDTb1dRM-pu-fCfnJjT-17" target="OMDTb1dRM-pu-fCfnJjT-16">
          <mxGeometry relative="1" as="geometry" />
        </mxCell>
        <mxCell id="OMDTb1dRM-pu-fCfnJjT-46" style="edgeStyle=orthogonalEdgeStyle;curved=1;orthogonalLoop=1;jettySize=auto;html=1;entryX=0;entryY=0.5;entryDx=0;entryDy=0;" edge="1" parent="1" source="OMDTb1dRM-pu-fCfnJjT-17" target="OMDTb1dRM-pu-fCfnJjT-43">
          <mxGeometry relative="1" as="geometry" />
        </mxCell>
        <mxCell id="OMDTb1dRM-pu-fCfnJjT-47" style="edgeStyle=orthogonalEdgeStyle;curved=1;orthogonalLoop=1;jettySize=auto;html=1;" edge="1" parent="1" source="OMDTb1dRM-pu-fCfnJjT-17" target="OMDTb1dRM-pu-fCfnJjT-33">
          <mxGeometry relative="1" as="geometry" />
        </mxCell>
        <mxCell id="OMDTb1dRM-pu-fCfnJjT-17" value="" style="ellipse;whiteSpace=wrap;html=1;aspect=fixed;" vertex="1" parent="1">
          <mxGeometry x="535" y="205" width="50" height="50" as="geometry" />
        </mxCell>
        <mxCell id="OMDTb1dRM-pu-fCfnJjT-44" style="edgeStyle=orthogonalEdgeStyle;curved=1;orthogonalLoop=1;jettySize=auto;html=1;" edge="1" parent="1" source="OMDTb1dRM-pu-fCfnJjT-18" target="OMDTb1dRM-pu-fCfnJjT-17">
          <mxGeometry relative="1" as="geometry" />
        </mxCell>
        <mxCell id="OMDTb1dRM-pu-fCfnJjT-18" value="" style="ellipse;whiteSpace=wrap;html=1;aspect=fixed;" vertex="1" parent="1">
          <mxGeometry x="375" y="205" width="50" height="50" as="geometry" />
        </mxCell>
        <mxCell id="OMDTb1dRM-pu-fCfnJjT-42" style="edgeStyle=orthogonalEdgeStyle;curved=1;orthogonalLoop=1;jettySize=auto;html=1;entryX=0;entryY=0.5;entryDx=0;entryDy=0;" edge="1" parent="1" source="OMDTb1dRM-pu-fCfnJjT-19" target="OMDTb1dRM-pu-fCfnJjT-18">
          <mxGeometry relative="1" as="geometry" />
        </mxCell>
        <mxCell id="OMDTb1dRM-pu-fCfnJjT-19" value="" style="ellipse;whiteSpace=wrap;html=1;aspect=fixed;" vertex="1" parent="1">
          <mxGeometry x="215" y="205" width="50" height="50" as="geometry" />
        </mxCell>
        <mxCell id="OMDTb1dRM-pu-fCfnJjT-20" value="" style="ellipse;whiteSpace=wrap;html=1;aspect=fixed;" vertex="1" parent="1">
          <mxGeometry x="380" y="490" width="40" height="40" as="geometry" />
        </mxCell>
        <mxCell id="OMDTb1dRM-pu-fCfnJjT-21" value="" style="endArrow=none;dashed=1;html=1;rounded=0;" edge="1" parent="1">
          <mxGeometry width="50" height="50" relative="1" as="geometry">
            <mxPoint y="160" as="sourcePoint" />
            <mxPoint x="810" y="160" as="targetPoint" />
          </mxGeometry>
        </mxCell>
        <mxCell id="OMDTb1dRM-pu-fCfnJjT-22" value="" style="endArrow=none;dashed=1;html=1;rounded=0;" edge="1" parent="1">
          <mxGeometry width="50" height="50" relative="1" as="geometry">
            <mxPoint y="280" as="sourcePoint" />
            <mxPoint x="810" y="280" as="targetPoint" />
          </mxGeometry>
        </mxCell>
        <mxCell id="OMDTb1dRM-pu-fCfnJjT-23" value="Intance multi Evolution" style="text;html=1;align=center;verticalAlign=middle;resizable=0;points=[];autosize=1;strokeColor=none;fillColor=none;" vertex="1" parent="1">
          <mxGeometry x="10" y="390" width="140" height="30" as="geometry" />
        </mxCell>
        <mxCell id="OMDTb1dRM-pu-fCfnJjT-24" value="" style="endArrow=none;dashed=1;html=1;rounded=0;" edge="1" parent="1">
          <mxGeometry width="50" height="50" relative="1" as="geometry">
            <mxPoint y="70" as="sourcePoint" />
            <mxPoint x="810" y="70" as="targetPoint" />
          </mxGeometry>
        </mxCell>
        <mxCell id="OMDTb1dRM-pu-fCfnJjT-35" style="edgeStyle=orthogonalEdgeStyle;orthogonalLoop=1;jettySize=auto;html=1;entryX=0;entryY=0.5;entryDx=0;entryDy=0;curved=1;" edge="1" parent="1" source="OMDTb1dRM-pu-fCfnJjT-25" target="OMDTb1dRM-pu-fCfnJjT-31">
          <mxGeometry relative="1" as="geometry">
            <Array as="points">
              <mxPoint x="310" y="430" />
              <mxPoint x="310" y="310" />
            </Array>
          </mxGeometry>
        </mxCell>
        <mxCell id="OMDTb1dRM-pu-fCfnJjT-36" style="edgeStyle=orthogonalEdgeStyle;curved=1;orthogonalLoop=1;jettySize=auto;html=1;entryX=0;entryY=0.5;entryDx=0;entryDy=0;" edge="1" parent="1" source="OMDTb1dRM-pu-fCfnJjT-25" target="OMDTb1dRM-pu-fCfnJjT-30">
          <mxGeometry relative="1" as="geometry" />
        </mxCell>
        <mxCell id="OMDTb1dRM-pu-fCfnJjT-37" style="edgeStyle=orthogonalEdgeStyle;curved=1;orthogonalLoop=1;jettySize=auto;html=1;" edge="1" parent="1" source="OMDTb1dRM-pu-fCfnJjT-25" target="OMDTb1dRM-pu-fCfnJjT-29">
          <mxGeometry relative="1" as="geometry" />
        </mxCell>
        <mxCell id="OMDTb1dRM-pu-fCfnJjT-38" style="edgeStyle=orthogonalEdgeStyle;curved=1;orthogonalLoop=1;jettySize=auto;html=1;entryX=0;entryY=0.5;entryDx=0;entryDy=0;" edge="1" parent="1" source="OMDTb1dRM-pu-fCfnJjT-25" target="OMDTb1dRM-pu-fCfnJjT-28">
          <mxGeometry relative="1" as="geometry" />
        </mxCell>
        <mxCell id="OMDTb1dRM-pu-fCfnJjT-39" style="edgeStyle=orthogonalEdgeStyle;curved=1;orthogonalLoop=1;jettySize=auto;html=1;" edge="1" parent="1" source="OMDTb1dRM-pu-fCfnJjT-25" target="OMDTb1dRM-pu-fCfnJjT-27">
          <mxGeometry relative="1" as="geometry" />
        </mxCell>
        <mxCell id="OMDTb1dRM-pu-fCfnJjT-40" style="edgeStyle=orthogonalEdgeStyle;curved=1;orthogonalLoop=1;jettySize=auto;html=1;entryX=0;entryY=0.5;entryDx=0;entryDy=0;" edge="1" parent="1" source="OMDTb1dRM-pu-fCfnJjT-25" target="OMDTb1dRM-pu-fCfnJjT-20">
          <mxGeometry relative="1" as="geometry" />
        </mxCell>
        <mxCell id="OMDTb1dRM-pu-fCfnJjT-41" style="edgeStyle=orthogonalEdgeStyle;curved=1;orthogonalLoop=1;jettySize=auto;html=1;entryX=-0.025;entryY=0.75;entryDx=0;entryDy=0;entryPerimeter=0;" edge="1" parent="1" source="OMDTb1dRM-pu-fCfnJjT-25" target="OMDTb1dRM-pu-fCfnJjT-26">
          <mxGeometry relative="1" as="geometry" />
        </mxCell>
        <mxCell id="OMDTb1dRM-pu-fCfnJjT-25" value="Eevee" style="ellipse;whiteSpace=wrap;html=1;aspect=fixed;" vertex="1" parent="1">
          <mxGeometry x="200" y="390" width="80" height="80" as="geometry" />
        </mxCell>
        <mxCell id="OMDTb1dRM-pu-fCfnJjT-26" value="" style="ellipse;whiteSpace=wrap;html=1;aspect=fixed;" vertex="1" parent="1">
          <mxGeometry x="380" y="530" width="40" height="40" as="geometry" />
        </mxCell>
        <mxCell id="OMDTb1dRM-pu-fCfnJjT-27" value="" style="ellipse;whiteSpace=wrap;html=1;aspect=fixed;" vertex="1" parent="1">
          <mxGeometry x="380" y="450" width="40" height="40" as="geometry" />
        </mxCell>
        <mxCell id="OMDTb1dRM-pu-fCfnJjT-28" value="" style="ellipse;whiteSpace=wrap;html=1;aspect=fixed;" vertex="1" parent="1">
          <mxGeometry x="380" y="410" width="40" height="40" as="geometry" />
        </mxCell>
        <mxCell id="OMDTb1dRM-pu-fCfnJjT-29" value="" style="ellipse;whiteSpace=wrap;html=1;aspect=fixed;" vertex="1" parent="1">
          <mxGeometry x="380" y="370" width="40" height="40" as="geometry" />
        </mxCell>
        <mxCell id="OMDTb1dRM-pu-fCfnJjT-30" value="" style="ellipse;whiteSpace=wrap;html=1;aspect=fixed;" vertex="1" parent="1">
          <mxGeometry x="380" y="330" width="40" height="40" as="geometry" />
        </mxCell>
        <mxCell id="OMDTb1dRM-pu-fCfnJjT-31" value="" style="ellipse;whiteSpace=wrap;html=1;aspect=fixed;" vertex="1" parent="1">
          <mxGeometry x="380" y="290" width="40" height="40" as="geometry" />
        </mxCell>
        <mxCell id="OMDTb1dRM-pu-fCfnJjT-33" value="" style="ellipse;whiteSpace=wrap;html=1;aspect=fixed;" vertex="1" parent="1">
          <mxGeometry x="710" y="240" width="40" height="40" as="geometry" />
        </mxCell>
        <mxCell id="OMDTb1dRM-pu-fCfnJjT-43" value="" style="ellipse;whiteSpace=wrap;html=1;aspect=fixed;" vertex="1" parent="1">
          <mxGeometry x="710" y="200" width="40" height="40" as="geometry" />
        </mxCell>
      </root>
    </mxGraphModel>
  </diagram>
</mxfile>
